<?xml version="1.0" encoding="UTF-8"?>
<svg fill="#CC0033" width="100pt" height="100pt" version="1.1" viewBox="0 0 100 100" xmlns="http://www.w3.org/2000/svg">
 <path d="m84.191 41.98l-9.3086-22.477c0-0.003906-0.003906-0.003906-0.003906-0.007812s0-0.003906-0.003906-0.007813c-1.3594-3.2188-3.3086-6.1055-5.7852-8.582-2.4805-2.4805-5.3672-4.4258-8.582-5.7852-3.3242-1.4062-6.8633-2.1211-10.508-2.1211s-7.1836 0.71484-10.512 2.1211c-3.2148 1.3594-6.1016 3.3047-8.582 5.7852-2.4766 2.4766-4.4258 5.3633-5.7852 8.582 0 0.003907 0 0.003907-0.003906 0.007813 0 0.003906-0.003907 0.003906-0.003907 0.007812l-9.3086 22.477c-8.4766 20.469 1.2734 44.02 21.734 52.504h0.003907s0.003906 0 0.003906 0.003906c0.003906 0 0.007813 0.003907 0.007813 0.003907 0.003906 0 0.003906 0 0.003906 0.003906 3.9453 1.6602 8.1289 2.5039 12.441 2.5039s8.4961-0.84375 12.438-2.5078c0.003906 0 0.003906 0 0.003906-0.003907 0.003906 0 0.007813-0.003906 0.007813-0.003906s0.003906 0 0.003906-0.003906h0.003906c20.465-8.4844 30.215-32.031 21.734-52.5zm-43.387 28.828l0.003906-0.003906c1.1016-1.1016 1.9648-2.3867 2.5703-3.8125 0.625-1.4805 0.94141-3.0547 0.94141-4.6719 0-1.6172-0.31641-3.1914-0.94531-4.6719-0.60547-1.4297-1.4688-2.7109-2.5703-3.8125-1.1016-1.1016-2.3867-1.9648-3.8125-2.5703-0.95313-0.40234-1.8086-0.98047-2.543-1.7188-0.73438-0.73438-1.3125-1.5898-1.7148-2.543-0.41797-0.98438-0.62891-2.0312-0.62891-3.1133 0-1.0781 0.21094-2.1289 0.62891-3.1133 0.40234-0.95312 0.98047-1.8086 1.7148-2.543s1.5898-1.3125 2.543-1.7148c1.4297-0.60547 2.7109-1.4688 3.8125-2.5703 1.1016-1.1016 1.9648-2.3867 2.5703-3.8125 0.042969-0.10547 0.074219-0.21094 0.11719-0.31641 1.25 1.1406 2.7891 1.9609 4.5078 2.3242v60.688c-2.7109-0.41797-5.2148-1.6641-7.1914-3.6406-2.457-2.4531-3.8086-5.7188-3.8086-9.1914s1.3516-6.7344 3.8047-9.1914zm22.203-34.289c0.95313 0.40234 1.8086 0.98047 2.543 1.7188 0.73438 0.73438 1.3125 1.5898 1.7148 2.543 0.41797 0.98438 0.62891 2.0312 0.62891 3.1133s-0.21094 2.1289-0.62891 3.1133c-0.40234 0.95313-0.98047 1.8086-1.7148 2.543s-1.5898 1.3125-2.543 1.7148c-1.4297 0.60547-2.7109 1.4688-3.8125 2.5703-1.1016 1.1016-1.9648 2.3867-2.5703 3.8125-0.625 1.4805-0.94141 3.0547-0.94141 4.6719 0 1.6172 0.31641 3.1914 0.94531 4.6719 0.60547 1.4297 1.4688 2.7109 2.5703 3.8125l0.003906 0.003906c2.4453 2.457 3.7969 5.7188 3.7969 9.1914s-1.3516 6.7383-3.8086 9.1914c-1.9766 1.9766-4.4805 3.2227-7.1914 3.6406v-60.688c1.7148-0.36328 3.2578-1.1836 4.5078-2.3242 0.039063 0.10547 0.070313 0.21094 0.11719 0.31641 0.60547 1.4297 1.4688 2.7109 2.5703 3.8125 1.0977 1.1055 2.3828 1.9688 3.8125 2.5703zm-13.008-8.1641c-3.1289 0-5.6758-2.5469-5.6758-5.6797 0-3.1289 2.5469-5.6758 5.6758-5.6758 3.1328 0 5.6797 2.5469 5.6797 5.6797 0 3.1289-2.5469 5.6758-5.6797 5.6758zm14.301 60.828c1.75-2.7148 2.6992-5.875 2.6992-9.1836 0-4.5391-1.7656-8.8047-4.9766-12.016l-0.003907-0.003906c-0.73438-0.73438-1.3125-1.5938-1.7148-2.543-0.41797-0.98438-0.62891-2.0312-0.62891-3.1133s0.21094-2.1289 0.62891-3.1133c0.40234-0.95313 0.98047-1.8086 1.7148-2.543s1.5898-1.3125 2.543-1.7148c1.4297-0.60547 2.7148-1.4688 3.8125-2.5703 1.1016-1.1016 1.9648-2.3867 2.5703-3.8125 0.625-1.4805 0.94141-3.0547 0.94141-4.6719 0-1.6172-0.31641-3.1875-0.94141-4.6719-0.60547-1.4297-1.4688-2.7148-2.5703-3.8125-1.1016-1.1016-2.3867-1.9688-3.8125-2.5703-0.95312-0.40234-1.8086-0.98047-2.543-1.7148s-1.3125-1.5938-1.7148-2.543c-0.41797-0.98438-0.62891-2.0312-0.62891-3.1133v-2.7891c0.003907-5.3398-4.3398-9.6836-9.6758-9.6836s-9.6758 4.3438-9.6758 9.6797v2.7812 0.003906c0 1.082-0.21094 2.1289-0.62891 3.1133-0.40234 0.95312-0.98047 1.8086-1.7148 2.543s-1.5898 1.3125-2.543 1.7148c-1.4297 0.60547-2.7148 1.4688-3.8125 2.5703-1.1016 1.1016-1.9648 2.3867-2.5703 3.8125-0.625 1.4805-0.94141 3.0547-0.94141 4.6719s0.31641 3.1914 0.94141 4.6719c0.60547 1.4297 1.4688 2.7148 2.5703 3.8125 1.1016 1.1016 2.3867 1.9688 3.8125 2.5703 0.95312 0.40234 1.8086 0.98047 2.543 1.7148s1.3125 1.5938 1.7148 2.543c0.41797 0.98438 0.62891 2.0312 0.62891 3.1133 0 1.082-0.21094 2.1289-0.62891 3.1133-0.40234 0.95312-0.98047 1.8086-1.7148 2.543l-0.003907 0.003906c-3.2109 3.2188-4.9766 7.4844-4.9766 12.023 0 3.3086 0.94922 6.4648 2.6992 9.1797-16.094-8.7031-23.348-28.402-16.195-45.672l9.3047-22.465c1.1602-2.7383 2.8164-5.1953 4.9297-7.3086s4.5742-3.7695 7.3125-4.9297c2.832-1.1992 5.8438-1.8047 8.9492-1.8047s6.1172 0.60547 8.9531 1.8086c2.7383 1.1562 5.1992 2.8164 7.3125 4.9297s3.7695 4.5703 4.9297 7.3086l9.3047 22.465c7.1484 17.266-0.10547 36.969-16.199 45.672z"/>
</svg>
